<svg version="1.1" id="Layer_1" xmlns="http://www.w3.org/2000/svg" xmlns:xlink="http://www.w3.org/1999/xlink" x="0px" y="0px"
	 width="100%" viewBox="0 0 277 123" enable-background="new 0 0 277 123" xml:space="preserve">
<path fill="#FEFEFE" opacity="1.000000" stroke="none" 
	d="
M1.000000,92.000000 
	C1.000000,61.694218 1.000000,31.388433 1.000000,1.041326 
	C93.221909,1.041326 185.443832,1.041326 278.000000,1.041326 
	C278.000000,38.686901 278.000000,76.374794 277.724213,114.322479 
	C273.121216,109.506577 272.836670,103.529694 274.126678,97.451904 
	C271.632141,97.714584 269.648376,98.135590 267.674377,98.094055 
	C259.781433,97.927994 251.892654,97.511055 243.999863,97.431732 
	C241.837234,97.409996 239.673538,98.555412 237.497025,98.607391 
	C234.131683,98.687744 230.748123,98.364769 227.385056,98.068260 
	C224.618332,97.824326 221.870148,97.370316 219.533691,97.040176 
	C221.293243,96.876137 222.632858,96.681335 223.972458,96.486534 
	C223.903137,96.131699 223.833817,95.776871 223.764511,95.422035 
	C220.447342,95.422035 217.130188,95.422035 213.393570,95.387383 
	C208.927475,94.142570 204.880829,92.932411 201.441071,91.903740 
	C198.699875,92.432228 196.171707,92.919647 193.763870,93.383858 
	C193.234253,95.165207 192.693237,96.984833 192.152237,98.804466 
	C191.499084,98.722504 190.845932,98.640541 190.192780,98.558578 
	C190.192780,91.101601 190.192780,83.644630 190.192780,76.319733 
	C187.034637,76.319733 183.965149,76.319733 181.567841,76.319733 
	C180.722107,79.965042 179.979736,83.164757 179.237381,86.364471 
	C177.852463,82.348122 178.877090,77.608871 176.969421,75.093323 
	C174.756302,72.174934 170.230423,73.406425 166.835480,75.876007 
	C166.378799,75.117996 166.177994,74.536438 165.993988,73.591919 
	C166.034348,72.745163 166.057877,72.261383 166.134033,71.688698 
	C166.186630,71.599800 166.042007,71.452278 166.088669,71.025291 
	C166.107452,68.225540 166.079559,65.852776 166.079163,63.478836 
	C166.106628,63.477657 166.145340,63.516712 166.205963,63.108517 
	C165.677658,61.083916 164.118118,58.908104 164.670578,57.949532 
	C166.869781,54.133728 167.043915,50.557964 165.083405,46.427536 
	C164.702347,45.504959 164.314896,44.897930 163.927444,44.290909 
	C163.936981,45.101685 163.946503,45.912457 163.526398,46.846989 
	C161.525040,46.970745 159.953354,46.970745 157.965332,46.970745 
	C157.965332,43.474545 157.965332,40.276550 158.167969,36.805824 
	C159.244003,36.358479 160.117432,36.183865 161.003845,36.252205 
	C161.139633,36.772339 161.262405,37.049519 161.385178,37.326698 
	C161.509933,37.236828 161.748138,37.075253 161.743164,37.067394 
	C161.511627,36.701130 161.258942,36.348236 161.001175,35.598969 
	C160.036041,31.680769 159.078430,28.157406 158.120819,24.634041 
	C157.839462,24.730680 157.558105,24.827320 157.276733,24.923960 
	C156.985092,29.213175 156.693436,33.502392 156.438141,38.176659 
	C156.134430,40.496471 155.776718,42.428329 155.458191,44.366627 
	C154.898361,47.773373 152.618332,51.372765 156.966049,54.222775 
	C157.407898,54.512417 156.208664,57.305569 155.446503,58.985199 
	C153.747726,59.868587 152.373413,60.703728 150.652740,61.677124 
	C143.229462,65.888016 136.152512,69.960655 128.632965,73.959747 
	C123.833450,73.190750 122.285194,74.934944 122.671638,79.374977 
	C122.978638,82.902252 122.395683,86.506981 121.870430,90.054962 
	C121.082275,90.021347 120.631538,90.010094 120.112785,89.749451 
	C119.811325,89.271111 119.577896,89.042160 119.344460,88.813210 
	C119.233490,89.191994 119.122520,89.570778 118.662582,90.040459 
	C117.557594,92.088829 116.801590,94.046303 115.657379,96.001984 
	C114.753548,96.039413 114.237915,96.078629 113.478699,96.158554 
	C113.235107,96.199257 112.824631,95.924530 112.702446,95.888885 
	C112.580261,95.853233 112.326782,95.876694 112.013153,96.010712 
	C111.476471,96.100609 111.253418,96.056503 110.905518,95.966034 
	C110.603989,95.895187 110.426826,95.890968 109.842010,95.720245 
	C108.154785,95.165184 106.874733,94.796867 105.885674,94.312477 
	C106.673050,93.850029 107.169441,93.503654 107.665840,93.157288 
	C107.152390,93.042618 106.638939,92.927940 106.189240,92.461372 
	C108.823502,90.902748 111.394012,89.696030 113.964523,88.489311 
	C113.857635,88.146126 113.750740,87.802940 113.643845,87.459755 
	C109.762360,88.306099 105.880875,89.152443 101.964569,89.714752 
	C101.624817,89.108688 101.319870,88.786659 101.014931,88.464638 
	C100.833382,88.674065 100.651840,88.883492 100.470291,89.092918 
	C100.979790,89.395073 101.489288,89.697227 102.043060,90.329453 
	C103.333939,91.481812 104.580536,92.304123 105.778152,93.437302 
	C105.663551,93.948380 105.597939,94.148590 105.495499,94.516769 
	C105.184227,94.852295 104.909790,95.019875 104.259453,95.142471 
	C102.917725,95.838074 101.951889,96.578636 100.630936,97.463501 
	C98.791245,98.183708 97.306679,98.759605 95.297150,99.234619 
	C90.238647,99.042908 85.705132,98.952080 81.282089,98.490166 
	C84.519806,96.243088 87.647049,94.367096 91.321785,92.162666 
	C87.794647,91.718811 85.040543,91.372223 82.968849,91.111519 
	C83.602852,87.262970 84.194016,83.674477 84.903236,79.642456 
	C84.909515,75.680275 84.797745,72.161629 84.785446,68.235580 
	C84.274841,66.966705 83.664757,66.105232 83.054672,65.243767 
	C82.043495,67.232224 81.032310,69.220688 80.021133,71.209145 
	C80.461563,71.445274 80.902000,71.681404 81.342430,71.917534 
	C81.833557,71.295616 82.324677,70.673698 82.881134,70.494720 
	C82.898438,73.623734 82.850410,76.309822 82.625961,79.082520 
	C82.220032,79.321152 82.069984,79.530205 81.629028,79.867409 
	C80.513145,79.871269 79.767639,79.804016 79.035736,79.383804 
	C78.988998,77.951485 78.928650,76.872124 78.868301,75.792755 
	C78.592247,75.750534 78.316185,75.708313 78.040123,75.666092 
	C77.690727,77.103638 77.341331,78.541183 76.873871,80.306625 
	C77.087440,85.927528 74.987625,90.741928 73.888962,95.761971 
	C73.406029,97.968620 73.807655,100.368851 73.807655,102.797348 
	C72.349075,102.883469 71.201172,102.951241 69.787773,103.011482 
	C69.345215,103.004242 69.168144,103.004547 68.995529,103.002274 
	C69.000000,102.999695 68.995293,103.008842 68.997147,102.754044 
	C68.998138,102.329376 68.997269,102.159515 69.025360,101.545769 
	C68.961281,99.737404 68.868240,98.372925 68.775200,97.008438 
	C68.425476,97.387909 68.075745,97.767380 67.726021,98.146851 
	C65.188133,97.111221 62.650249,96.075592 59.714722,95.029221 
	C58.188946,95.750595 57.060818,96.482719 55.610397,97.392609 
	C53.429905,98.303024 51.627945,99.383308 49.701633,99.694946 
	C45.852341,100.317673 41.934887,100.519112 37.918911,101.098221 
	C37.191025,101.202431 36.589809,101.102936 35.558449,100.946381 
	C31.419014,101.528519 27.709730,102.167717 24.000389,102.417671 
	C23.862705,100.521866 23.725077,99.015305 23.587448,97.508743 
	C23.233124,97.568718 22.878801,97.628685 22.524479,97.688652 
	C22.682787,99.394745 22.841097,101.100830 22.611679,102.905289 
	C20.725561,102.911316 19.227049,102.820892 17.728806,102.726250 
	C13.152463,102.437141 8.576222,102.146393 4.056497,101.468643 
	C4.905583,97.426582 7.251909,93.239510 1.000000,92.000000 
M162.408691,42.482315 
	C162.408691,42.482315 162.524612,42.412468 162.408691,42.482315 
M109.394058,93.488289 
	C109.394058,93.488289 109.525200,93.403801 109.394058,93.488289 
z"/>
<path fill="#030303" opacity="1.000000" stroke="none" 
	d="
M111.030365,96.012405 
	C111.253418,96.056503 111.476471,96.100609 111.959061,96.157135 
	C112.218597,96.169540 112.652039,96.260780 112.652039,96.260780 
	C112.652039,96.260780 112.824631,95.924530 112.824631,95.924530 
	C112.824631,95.924530 113.235107,96.199257 113.673332,96.425362 
	C114.756233,96.435570 115.400909,96.219681 116.045586,96.003784 
	C116.801590,94.046303 117.557594,92.088829 118.764435,90.262939 
	C119.425201,90.666267 119.699203,90.832207 120.143097,91.222809 
	C120.901886,91.061287 121.554871,90.569305 122.207855,90.077316 
	C122.395683,86.506981 122.978638,82.902252 122.671638,79.374977 
	C122.285194,74.934944 123.833450,73.190750 129.066681,74.032005 
	C131.113342,74.196777 132.283661,74.215729 133.353760,74.676620 
	C133.253540,79.862892 133.253540,84.607231 133.253540,89.419403 
	C134.803604,89.601837 135.919846,89.733215 137.165344,90.060051 
	C137.833679,90.067741 138.372742,89.879974 139.272583,89.642090 
	C139.837204,88.253716 139.909637,86.877876 140.278778,85.586876 
	C140.722656,84.034508 141.418991,82.554321 142.258698,81.158737 
	C142.675049,81.187698 142.838730,81.100800 143.392426,81.060913 
	C144.373260,81.762154 144.964127,82.416367 145.423828,83.503494 
	C145.152847,85.811356 145.013000,87.686302 144.897430,89.235863 
	C148.152969,89.871910 150.865631,90.401894 153.384644,91.171265 
	C152.802948,92.260803 152.414871,93.110962 152.026810,93.961113 
	C152.357529,94.163750 152.688248,94.366394 153.018967,94.569031 
	C153.732178,93.404816 154.445389,92.240601 155.475723,91.057816 
	C156.215927,91.018929 156.639008,90.998589 157.232422,91.286522 
	C157.321762,92.284576 157.240768,92.974350 157.036575,94.713394 
	C158.335968,93.238632 158.912750,92.583992 159.635223,91.594360 
	C159.519333,89.689224 159.061676,88.123016 159.030197,86.548279 
	C158.895493,79.805489 159.152786,73.042000 158.694061,66.325195 
	C158.522095,63.807648 156.791153,61.396576 155.770981,58.936954 
	C156.208664,57.305569 157.407898,54.512417 156.966049,54.222775 
	C152.618332,51.372765 154.898361,47.773373 155.458191,44.366627 
	C155.776718,42.428329 156.134430,40.496471 156.666382,37.972855 
	C157.227310,37.282181 157.596313,37.180367 157.965332,37.078552 
	C157.965332,40.276550 157.965332,43.474545 157.965332,46.970745 
	C159.953354,46.970745 161.525040,46.970745 163.806244,46.874031 
	C164.702835,46.765911 164.889923,46.754498 165.077026,46.743084 
	C167.043915,50.557964 166.869781,54.133728 164.670578,57.949532 
	C164.118118,58.908104 165.677658,61.083916 165.859299,62.903244 
	C164.023743,62.695335 162.595474,62.284504 161.939911,62.095932 
	C161.939911,69.485550 161.939911,77.297112 161.939911,85.108681 
	C162.637283,85.276894 163.334656,85.445114 164.032028,85.613327 
	C165.051804,82.426376 166.071579,79.239426 167.091339,76.052467 
	C170.230423,73.406425 174.756302,72.174934 176.969421,75.093323 
	C178.877090,77.608871 177.852463,82.348122 179.237381,86.364471 
	C179.979736,83.164757 180.722107,79.965042 181.567841,76.319733 
	C183.965149,76.319733 187.034637,76.319733 190.192780,76.319733 
	C190.192780,83.644630 190.192780,91.101601 190.192780,98.558578 
	C190.845932,98.640541 191.499084,98.722504 192.152237,98.804466 
	C192.693237,96.984833 193.234253,95.165207 193.763870,93.383858 
	C196.171707,92.919647 198.699875,92.432228 201.441071,91.903740 
	C204.880829,92.932411 208.927475,94.142570 213.435822,95.721382 
	C215.636246,96.396500 217.375000,96.702957 219.113739,97.009415 
	C221.870148,97.370316 224.618332,97.824326 227.385056,98.068260 
	C230.748123,98.364769 234.131683,98.687744 237.497025,98.607391 
	C239.673538,98.555412 241.837234,97.409996 243.999863,97.431732 
	C251.892654,97.511055 259.781433,97.927994 267.674377,98.094055 
	C269.648376,98.135590 271.632141,97.714584 274.126678,97.451904 
	C272.836670,103.529694 273.121216,109.506577 277.724213,114.791138 
	C278.000000,115.750000 278.000000,116.500000 277.913391,117.967606 
	C275.602203,120.189087 273.377625,121.692963 270.721527,123.102600 
	C267.860016,123.338898 265.429993,123.669449 263.000000,124.000000 
	C258.643097,124.000000 254.286194,124.000000 249.177673,123.695114 
	C247.781067,123.263687 247.136154,123.026932 246.491058,123.026451 
	C219.218460,123.005898 191.945831,122.993515 164.673325,123.046555 
	C163.448273,123.048935 162.224411,123.668114 161.000000,124.000000 
	C130.312439,124.000000 99.624878,124.000000 68.177971,123.699387 
	C61.314941,123.267204 55.210255,123.009048 49.108006,123.057617 
	C46.069698,123.081802 43.035858,123.668022 40.000000,124.000000 
	C38.285641,124.000000 36.571285,124.000000 34.289932,123.665733 
	C31.870510,122.498810 30.018076,121.666161 27.922831,120.724365 
	C28.235300,119.823029 28.730482,118.394638 29.349331,116.609520 
	C24.527294,116.609520 20.187857,116.609520 15.950572,116.609520 
	C14.679143,119.718460 15.372673,124.283813 9.909229,122.596619 
	C9.796187,120.383232 9.796187,118.510696 9.796187,117.334030 
	C6.683737,116.154312 3.841868,115.077156 1.000000,114.000000 
	C1.000000,111.958336 1.000000,109.916664 1.345289,107.293839 
	C2.090041,105.313118 2.489505,103.913559 3.079988,102.414368 
	C3.526258,102.181419 3.769236,102.028610 3.999943,101.856285 
	C8.576222,102.146393 13.152463,102.437141 17.728806,102.726250 
	C19.227049,102.820892 20.725561,102.911316 22.861938,102.968597 
	C23.666767,102.891319 23.833607,102.849113 24.000444,102.806915 
	C27.709730,102.167717 31.419014,101.528519 35.607162,101.179398 
	C36.086029,101.469475 35.959328,101.928421 35.677380,101.982574 
	C36.255554,102.496964 37.115677,102.957184 38.311699,103.512283 
	C40.364677,103.372154 42.081749,103.137138 44.021042,103.189789 
	C47.271793,103.569450 50.625641,105.031311 54.057060,101.129959 
	C49.848885,101.129959 46.906628,101.129959 43.544373,101.074326 
	C41.431442,100.977303 39.738514,100.935905 38.045582,100.894516 
	C41.934887,100.519112 45.852341,100.317673 49.701633,99.694946 
	C51.627945,99.383308 53.429905,98.303024 55.830345,97.631409 
	C57.619183,96.808281 58.865776,95.924126 60.112366,95.039970 
	C62.650249,96.075592 65.188133,97.111221 67.726021,98.146851 
	C68.075745,97.767380 68.425476,97.387909 68.775200,97.008438 
	C68.868240,98.372925 68.961281,99.737404 68.745689,101.606987 
	C68.623138,102.411003 68.809212,102.709923 68.995293,103.008842 
	C68.995293,103.008842 69.000000,102.999695 69.051605,103.262489 
	C69.419899,103.356529 69.736580,103.187775 70.053268,103.019020 
	C71.201172,102.951241 72.349075,102.883469 73.807655,102.797348 
	C73.807655,100.368851 73.406029,97.968620 73.888962,95.761971 
	C74.987625,90.741928 77.087440,85.927528 77.217125,80.302498 
	C78.126335,79.892563 78.574234,79.814659 79.022133,79.736755 
	C79.767639,79.804016 80.513145,79.871269 81.838715,79.968651 
	C82.418777,79.998772 82.874557,79.903152 83.194183,79.923355 
	C83.937592,79.991043 84.361382,80.038513 84.785172,80.085983 
	C84.194016,83.674477 83.602852,87.262970 82.968849,91.111519 
	C85.040543,91.372223 87.794647,91.718811 91.321785,92.162666 
	C87.647049,94.367096 84.519806,96.243088 81.128815,98.854767 
	C85.888046,101.693031 90.875984,101.740555 95.822121,99.335510 
	C97.306679,98.759605 98.791245,98.183708 100.937531,97.696243 
	C102.611290,96.918938 103.623322,96.053185 104.635345,95.187439 
	C104.909790,95.019875 105.184227,94.852295 105.540665,94.512436 
	C105.622658,94.340141 105.594688,94.428558 105.594688,94.428558 
	C106.874733,94.796867 108.154785,95.165184 109.788666,95.882988 
	C110.122093,96.365074 110.101685,96.497673 110.081268,96.630264 
	C110.397629,96.424309 110.713997,96.218353 111.030365,96.012405 
z"/>
<path fill="#EBEBEB" opacity="1.000000" stroke="none" 
	d="
M10.022272,122.937477 
	C15.372673,124.283813 14.679143,119.718460 15.950572,116.609520 
	C20.187857,116.609520 24.527294,116.609520 29.349331,116.609520 
	C28.730482,118.394638 28.235300,119.823029 27.922831,120.724365 
	C30.018076,121.666161 31.870510,122.498810 33.861473,123.665733 
	C26.312424,124.000000 18.624847,124.000000 10.471411,123.734314 
	C10.011123,123.291573 10.016697,123.114525 10.022272,122.937477 
z"/>
<path fill="#191919" opacity="1.000000" stroke="none" 
	d="
M161.468658,124.000000 
	C162.224411,123.668114 163.448273,123.048935 164.673325,123.046555 
	C191.945831,122.993515 219.218460,123.005898 246.491058,123.026451 
	C247.136154,123.026932 247.781067,123.263687 248.713043,123.695114 
	C219.979111,124.000000 190.958206,124.000000 161.468658,124.000000 
z"/>
<path fill="#F3F3F3" opacity="1.000000" stroke="none" 
	d="
M9.909229,122.596619 
	C10.016697,123.114525 10.011123,123.291573 10.002775,123.734314 
	C7.076724,124.000000 4.153447,124.000000 1.000000,124.000000 
	C1.000000,120.993149 1.000000,117.983139 1.000000,114.486565 
	C3.841868,115.077156 6.683737,116.154312 9.796187,117.334030 
	C9.796187,118.510696 9.796187,120.383232 9.909229,122.596619 
z"/>
<path fill="#FEFEFE" opacity="1.000000" stroke="none" 
	d="
M4.056497,101.468643 
	C3.769236,102.028610 3.526258,102.181419 2.614506,102.260925 
	C1.638669,102.138092 1.319334,102.069046 1.000000,102.000000 
	C1.000000,98.969406 1.000000,95.938812 1.000000,92.454109 
	C7.251909,93.239510 4.905583,97.426582 4.056497,101.468643 
z"/>
<path fill="#191919" opacity="1.000000" stroke="none" 
	d="
M40.468658,124.000000 
	C43.035858,123.668022 46.069698,123.081802 49.108006,123.057617 
	C55.210255,123.009048 61.314941,123.267204 67.709312,123.699387 
	C58.979103,124.000000 49.958210,124.000000 40.468658,124.000000 
z"/>
<path fill="#E1E1E1" opacity="1.000000" stroke="none" 
	d="
M271.153046,123.196838 
	C273.377625,121.692963 275.602203,120.189087 277.913391,118.342606 
	C278.000000,119.920670 278.000000,121.841339 278.000000,124.000000 
	C276.001343,124.000000 273.998566,124.000000 271.563721,123.804459 
	C271.131622,123.608917 271.153046,123.196831 271.153046,123.196838 
z"/>
<path fill="#6E6E6E" opacity="1.000000" stroke="none" 
	d="
M270.721527,123.102592 
	C271.153046,123.196831 271.131622,123.608917 271.065796,123.804459 
	C268.629425,124.000000 266.258881,124.000000 263.444153,124.000000 
	C265.429993,123.669449 267.860016,123.338898 270.721527,123.102592 
z"/>
<path fill="#FEFEFE" opacity="1.000000" stroke="none" 
	d="
M1.000000,102.416664 
	C1.319334,102.069046 1.638669,102.138092 2.423486,102.360565 
	C2.489505,103.913559 2.090041,105.313118 1.345289,106.856339 
	C1.000000,105.611107 1.000000,104.222221 1.000000,102.416664 
z"/>
<path fill="#FAFAFA" opacity="1.000000" stroke="none" 
	d="
M157.062073,90.978249 
	C156.639008,90.998589 156.215927,91.018929 155.214767,91.005676 
	C154.283875,90.958679 153.931091,90.945282 153.578293,90.931885 
	C150.865631,90.401894 148.152969,89.871910 144.897430,89.235863 
	C145.013000,87.686302 145.152847,85.811356 145.763550,83.497406 
	C146.710495,82.448318 147.186615,81.838242 147.662735,81.228165 
	C145.759064,80.836403 143.855392,80.444641 141.964706,80.300415 
	C141.977692,80.547951 142.006027,81.042885 142.006012,81.042877 
	C141.418991,82.554321 140.722656,84.034508 140.278778,85.586876 
	C139.909637,86.877876 139.837204,88.253716 139.123291,89.453979 
	C138.087540,89.498871 137.561829,89.681732 137.036102,89.864601 
	C135.919846,89.733215 134.803604,89.601837 133.253540,89.419403 
	C133.253540,84.607231 133.253540,79.862892 133.518219,74.942627 
	C139.370544,71.271278 144.989090,67.822861 150.495972,64.204521 
	C151.020889,63.859615 150.848022,62.452732 150.999100,61.538872 
	C152.373413,60.703728 153.747726,59.868587 155.446503,58.985199 
	C156.791153,61.396576 158.522095,63.807648 158.694061,66.325195 
	C159.152786,73.042000 158.895493,79.805489 159.030197,86.548279 
	C159.061676,88.123016 159.519333,89.689224 159.378052,91.525391 
	C158.337479,91.520363 157.699783,91.249306 157.062073,90.978249 
M152.079651,85.448341 
	C152.213333,85.483902 152.347000,85.519463 152.480682,85.555023 
	C152.358444,85.337128 152.236221,85.119232 151.817657,84.468788 
	C151.445129,84.436096 151.072586,84.403412 150.700058,84.370720 
	C151.096375,84.623482 151.492706,84.876244 152.079651,85.448341 
M138.085327,77.393295 
	C138.201111,77.431877 138.316895,77.470459 138.432678,77.509041 
	C138.319443,77.313423 138.206207,77.117805 138.026810,76.397255 
	C137.740921,76.137596 137.474472,75.845116 137.148987,75.652267 
	C137.097794,75.621925 136.779083,76.043114 136.584076,76.255539 
	C137.027481,76.538078 137.470871,76.820618 138.085327,77.393295 
M155.474548,87.393410 
	C155.530151,87.167152 155.585754,86.940887 155.641373,86.714630 
	C155.505310,86.858994 155.369263,87.003349 155.474548,87.393410 
z"/>
<path fill="#D2D2D2" opacity="1.000000" stroke="none" 
	d="
M166.835480,75.876007 
	C166.071579,79.239426 165.051804,82.426376 164.032028,85.613327 
	C163.334656,85.445114 162.637283,85.276894 161.939911,85.108681 
	C161.939911,77.297112 161.939911,69.485550 161.939911,62.095932 
	C162.595474,62.284504 164.023743,62.695335 165.798676,63.311440 
	C166.145340,63.516712 166.106628,63.477657 166.002472,63.861832 
	C165.218079,65.498634 164.011688,66.751465 164.012161,68.003838 
	C164.012604,69.153580 165.313858,70.302818 166.042007,71.452278 
	C166.042007,71.452278 166.186630,71.599800 165.654083,71.512482 
	C165.406754,72.268402 165.691956,73.111641 165.977173,73.954887 
	C166.177994,74.536438 166.378799,75.117996 166.835480,75.876007 
z"/>
<path fill="#1D1D1D" opacity="1.000000" stroke="none" 
	d="
M150.652740,61.677124 
	C150.848022,62.452732 151.020889,63.859615 150.495972,64.204521 
	C144.989090,67.822861 139.370544,71.271278 133.618439,74.500687 
	C132.283661,74.215729 131.113342,74.196777 129.509293,74.105560 
	C136.152512,69.960655 143.229462,65.888016 150.652740,61.677124 
z"/>
<path fill="#F1F1F1" opacity="1.000000" stroke="none" 
	d="
M158.167969,36.805820 
	C157.596313,37.180367 157.227310,37.282181 156.630035,37.587799 
	C156.693436,33.502392 156.985092,29.213175 157.276733,24.923960 
	C157.558105,24.827320 157.839462,24.730680 158.120819,24.634041 
	C159.078430,28.157406 160.036041,31.680769 160.996658,35.602234 
	C160.999664,36.000340 160.990845,36.009254 160.990845,36.009254 
	C160.117432,36.183865 159.244003,36.358479 158.167969,36.805820 
z"/>
<path fill="#FEFEFE" opacity="1.000000" stroke="none" 
	d="
M95.297150,99.234619 
	C90.875984,101.740555 85.888046,101.693031 81.018341,99.225861 
	C85.705132,98.952080 90.238647,99.042908 95.297150,99.234619 
z"/>
<path fill="#F2F2F2" opacity="1.000000" stroke="none" 
	d="
M101.999390,89.998779 
	C105.880875,89.152443 109.762360,88.306099 113.643845,87.459755 
	C113.750740,87.802940 113.857635,88.146126 113.964523,88.489311 
	C111.394012,89.696030 108.823502,90.902748 106.122063,92.546722 
	C105.991135,92.983963 105.827141,93.126427 105.827141,93.126427 
	C104.580536,92.304123 103.333939,91.481812 102.043671,90.329758 
	C102.000000,90.000000 101.999390,89.998779 101.999390,89.998779 
z"/>
<path fill="#4F4F4F" opacity="1.000000" stroke="none" 
	d="
M84.903229,79.642456 
	C84.361382,80.038513 83.937592,79.991043 83.211380,79.693741 
	C82.908951,79.443916 82.802391,78.995903 82.802391,78.995903 
	C82.850410,76.309822 82.898438,73.623734 82.939972,70.140137 
	C83.517647,69.109406 84.101807,68.876190 84.685966,68.642982 
	C84.797745,72.161629 84.909515,75.680275 84.903229,79.642456 
z"/>
<path fill="#5E5E5E" opacity="1.000000" stroke="none" 
	d="
M219.533691,97.040176 
	C217.375000,96.702957 215.636246,96.396500 213.855255,95.756035 
	C217.130188,95.422035 220.447342,95.422035 223.764511,95.422035 
	C223.833817,95.776871 223.903137,96.131699 223.972458,96.486534 
	C222.632858,96.681335 221.293243,96.876137 219.533691,97.040176 
z"/>
<path fill="#EDEDED" opacity="1.000000" stroke="none" 
	d="
M84.785446,68.235580 
	C84.101807,68.876190 83.517647,69.109406 82.874649,69.697197 
	C82.324677,70.673698 81.833557,71.295616 81.342430,71.917534 
	C80.902000,71.681404 80.461563,71.445274 80.021133,71.209145 
	C81.032310,69.220688 82.043495,67.232224 83.054672,65.243767 
	C83.664757,66.105232 84.274841,66.966705 84.785446,68.235580 
z"/>
<path fill="#FEFEFE" opacity="1.000000" stroke="none" 
	d="
M35.959328,101.928421 
	C35.959328,101.928421 36.086029,101.469475 36.037312,101.236458 
	C36.589809,101.102936 37.191025,101.202431 37.918911,101.098221 
	C39.738514,100.935905 41.431442,100.977303 43.516579,101.518631 
	C43.872128,102.313095 43.835476,102.607605 43.798820,102.902115 
	C42.081749,103.137138 40.364677,103.372154 38.133072,103.317444 
	C37.065468,102.661293 36.512398,102.294853 35.959328,101.928421 
z"/>
<path fill="#979797" opacity="1.000000" stroke="none" 
	d="
M166.088669,71.025291 
	C165.313858,70.302818 164.012604,69.153580 164.012161,68.003838 
	C164.011688,66.751465 165.218079,65.498634 165.975006,63.863007 
	C166.079559,65.852776 166.107452,68.225540 166.088669,71.025291 
z"/>
<path fill="#FEFEFE" opacity="1.000000" stroke="none" 
	d="
M59.714722,95.029221 
	C58.865776,95.924126 57.619183,96.808281 56.152637,97.453636 
	C57.060818,96.482719 58.188946,95.750595 59.714722,95.029221 
z"/>
<path fill="#FEFEFE" opacity="1.000000" stroke="none" 
	d="
M24.000389,102.417671 
	C23.833607,102.849113 23.666767,102.891319 23.249668,102.870224 
	C22.841097,101.100830 22.682787,99.394745 22.524479,97.688652 
	C22.878801,97.628685 23.233124,97.568718 23.587448,97.508743 
	C23.725077,99.015305 23.862705,100.521866 24.000389,102.417671 
z"/>
<path fill="#FEFEFE" opacity="1.000000" stroke="none" 
	d="
M104.259445,95.142471 
	C103.623322,96.053185 102.611290,96.918938 101.292664,97.551941 
	C101.951889,96.578636 102.917725,95.838074 104.259445,95.142471 
z"/>
<path fill="#EDEDED" opacity="1.000000" stroke="none" 
	d="
M79.035736,79.383804 
	C78.574234,79.814659 78.126335,79.892563 77.335190,79.974594 
	C77.341331,78.541183 77.690727,77.103638 78.040123,75.666092 
	C78.316185,75.708313 78.592247,75.750534 78.868301,75.792755 
	C78.928650,76.872124 78.988998,77.951485 79.035736,79.383804 
z"/>
<path fill="#F1F1F1" opacity="1.000000" stroke="none" 
	d="
M165.083405,46.427536 
	C164.889923,46.754498 164.702835,46.765911 164.235901,46.750275 
	C163.946503,45.912457 163.936981,45.101685 163.927444,44.290909 
	C164.314896,44.897930 164.702347,45.504959 165.083405,46.427536 
z"/>
<path fill="#FEFEFE" opacity="1.000000" stroke="none" 
	d="
M121.870438,90.054962 
	C121.554871,90.569305 120.901886,91.061287 120.176140,90.998978 
	C120.103378,90.444687 120.180809,89.998840 120.180809,89.998840 
	C120.631538,90.010094 121.082275,90.021347 121.870438,90.054962 
z"/>
<path fill="#FEFEFE" opacity="1.000000" stroke="none" 
	d="
M101.999390,89.999695 
	C101.489288,89.697227 100.979790,89.395073 100.470291,89.092918 
	C100.651840,88.883492 100.833382,88.674065 101.014931,88.464638 
	C101.319870,88.786659 101.624817,89.108688 101.964569,89.714745 
	C101.999390,89.998779 102.000000,90.000000 101.999390,89.999695 
z"/>
<path fill="#F2F2F2" opacity="1.000000" stroke="none" 
	d="
M110.905518,95.966034 
	C110.713997,96.218353 110.397629,96.424309 110.081268,96.630264 
	C110.101685,96.497673 110.122093,96.365074 110.195847,96.069748 
	C110.426826,95.890968 110.603989,95.895187 110.905518,95.966034 
z"/>
<path fill="#F2F2F2" opacity="1.000000" stroke="none" 
	d="
M106.058311,92.898621 
	C106.638939,92.927940 107.152390,93.042618 107.665840,93.157288 
	C107.169441,93.503654 106.673050,93.850029 105.885674,94.312485 
	C105.594688,94.428558 105.622658,94.340141 105.577499,94.344475 
	C105.597939,94.148590 105.663551,93.948380 105.778152,93.437302 
	C105.827141,93.126427 105.991135,92.983963 106.058311,92.898621 
z"/>
<path fill="#F2F2F2" opacity="1.000000" stroke="none" 
	d="
M120.112785,89.749451 
	C120.180809,89.998840 120.103378,90.444687 120.070328,90.668518 
	C119.699203,90.832207 119.425201,90.666267 119.113419,90.172043 
	C119.122520,89.570778 119.233490,89.191994 119.344460,88.813210 
	C119.577896,89.042160 119.811325,89.271111 120.112785,89.749451 
z"/>
<path fill="#F1F1F1" opacity="1.000000" stroke="none" 
	d="
M161.004181,35.997070 
	C161.258942,36.348236 161.511627,36.701130 161.743164,37.067394 
	C161.748138,37.075253 161.509933,37.236828 161.385178,37.326698 
	C161.262405,37.049519 161.139633,36.772339 161.003845,36.252205 
	C160.990845,36.009254 160.999664,36.000340 161.004181,35.997070 
z"/>
<path fill="#1D1D1D" opacity="1.000000" stroke="none" 
	d="
M165.993988,73.591919 
	C165.691956,73.111641 165.406754,72.268402 165.601486,71.601379 
	C166.057877,72.261383 166.034348,72.745163 165.993988,73.591919 
z"/>
<path fill="#F2F2F2" opacity="1.000000" stroke="none" 
	d="
M115.657379,96.001991 
	C115.400909,96.219681 114.756233,96.435570 113.916916,96.384659 
	C114.237915,96.078629 114.753548,96.039413 115.657379,96.001991 
z"/>
<path fill="#EDEDED" opacity="1.000000" stroke="none" 
	d="
M82.625961,79.082520 
	C82.802391,78.995903 82.908951,79.443916 82.891754,79.673538 
	C82.874557,79.903152 82.418777,79.998772 82.209091,79.897530 
	C82.069984,79.530205 82.220032,79.321152 82.625961,79.082520 
z"/>
<path fill="#FEFEFE" opacity="1.000000" stroke="none" 
	d="
M68.997147,102.754044 
	C68.809212,102.709923 68.623138,102.411003 68.716721,102.050865 
	C68.997269,102.159515 68.998138,102.329376 68.997147,102.754044 
z"/>
<path fill="#FEFEFE" opacity="1.000000" stroke="none" 
	d="
M69.787773,103.011482 
	C69.736580,103.187775 69.419899,103.356529 69.047134,103.265060 
	C69.168144,103.004547 69.345215,103.004242 69.787773,103.011482 
z"/>
<path fill="#F2F2F2" opacity="1.000000" stroke="none" 
	d="
M112.702446,95.888885 
	C112.824631,95.924530 112.652039,96.260780 112.652039,96.260780 
	C112.652039,96.260780 112.218597,96.169540 112.272690,96.023117 
	C112.326782,95.876694 112.580261,95.853233 112.702446,95.888885 
z"/>
<path fill="#F1F1F1" opacity="1.000000" stroke="none" 
	d="
M162.466644,42.447392 
	C162.524612,42.412468 162.408691,42.482315 162.466644,42.447392 
z"/>
<path fill="#F2F2F2" opacity="1.000000" stroke="none" 
	d="
M109.459625,93.446045 
	C109.525200,93.403801 109.394058,93.488289 109.459625,93.446045 
z"/>
<path fill="#D0D0D0" opacity="1.000000" stroke="none" 
	d="
M44.021042,103.189789 
	C43.835476,102.607605 43.872128,102.313095 43.936577,101.574265 
	C46.906628,101.129959 49.848885,101.129959 54.057060,101.129959 
	C50.625641,105.031311 47.271793,103.569450 44.021042,103.189789 
z"/>
<path fill="#DDDDDD" opacity="1.000000" stroke="none" 
	d="
M141.951721,80.052879 
	C143.855392,80.444641 145.759064,80.836403 147.662735,81.228165 
	C147.186615,81.838242 146.710495,82.448318 145.894684,83.064499 
	C144.964127,82.416367 144.373260,81.762154 143.276138,80.843178 
	C142.559570,80.306084 142.286850,80.130905 141.951721,80.052879 
z"/>
<path fill="#DDDDDD" opacity="1.000000" stroke="none" 
	d="
M153.384644,91.171265 
	C153.931091,90.945282 154.283875,90.958679 154.897629,91.024231 
	C154.445389,92.240601 153.732178,93.404816 153.018967,94.569031 
	C152.688248,94.366394 152.357529,94.163750 152.026810,93.961113 
	C152.414871,93.110962 152.802948,92.260803 153.384644,91.171265 
z"/>
<path fill="#DDDDDD" opacity="1.000000" stroke="none" 
	d="
M157.232422,91.286522 
	C157.699783,91.249306 158.337479,91.520363 159.232361,91.860382 
	C158.912750,92.583992 158.335968,93.238632 157.036575,94.713394 
	C157.240768,92.974350 157.321762,92.284576 157.232422,91.286522 
z"/>
<path fill="#D0D0D0" opacity="1.000000" stroke="none" 
	d="
M35.677380,101.982574 
	C36.512398,102.294853 37.065468,102.661293 37.797169,103.222565 
	C37.115677,102.957184 36.255554,102.496964 35.677380,101.982574 
z"/>
<path fill="#E4E4E4" opacity="1.000000" stroke="none" 
	d="
M137.165344,90.060051 
	C137.561829,89.681732 138.087540,89.498871 138.762543,89.504105 
	C138.372742,89.879974 137.833679,90.067741 137.165344,90.060051 
z"/>
<path fill="#E4E4E4" opacity="1.000000" stroke="none" 
	d="
M141.964706,80.300415 
	C142.286850,80.130905 142.559570,80.306084 142.886139,80.796158 
	C142.838730,81.100800 142.675049,81.187698 142.258698,81.158737 
	C142.006027,81.042885 141.977692,80.547951 141.964706,80.300415 
z"/>
<path fill="#E4E4E4" opacity="1.000000" stroke="none" 
	d="
M137.914276,77.103149 
	C137.470871,76.820618 137.027481,76.538078 136.584076,76.255539 
	C136.779083,76.043114 137.097794,75.621925 137.148987,75.652267 
	C137.474472,75.845116 137.740921,76.137596 138.013123,76.702896 
	C137.999451,77.008537 137.914276,77.103149 137.914276,77.103149 
z"/>
<path fill="#DDDDDD" opacity="1.000000" stroke="none" 
	d="
M151.889023,85.129013 
	C151.492706,84.876244 151.096375,84.623482 150.700058,84.370728 
	C151.072586,84.403412 151.445129,84.436096 151.907532,84.739967 
	C151.997421,85.011147 151.889023,85.129013 151.889023,85.129013 
z"/>
<path fill="#DDDDDD" opacity="1.000000" stroke="none" 
	d="
M155.353882,87.270554 
	C155.369263,87.003349 155.505310,86.858994 155.641373,86.714630 
	C155.585754,86.940887 155.530151,87.167152 155.353882,87.270554 
z"/>
<path fill="#E4E4E4" opacity="1.000000" stroke="none" 
	d="
M138.046204,76.965363 
	C138.206207,77.117805 138.319443,77.313423 138.432678,77.509041 
	C138.316895,77.470459 138.201111,77.431877 137.999802,77.248222 
	C137.914276,77.103149 137.999451,77.008537 138.046204,76.965363 
z"/>
<path fill="#DDDDDD" opacity="1.000000" stroke="none" 
	d="
M152.055695,84.956238 
	C152.236221,85.119232 152.358444,85.337128 152.480682,85.555023 
	C152.347000,85.519463 152.213333,85.483902 151.984344,85.288681 
	C151.889023,85.129013 151.997421,85.011147 152.055695,84.956238 
z"/>
</svg>