<?xml version="1.0" encoding="iso-8859-1"?>
<!-- Uploaded to: SVG Repo, www.svgrepo.com, Generator: SVG Repo Mixer Tools -->
<svg fill="#000000" height="800px" width="800px" version="1.1" id="Layer_1" xmlns="http://www.w3.org/2000/svg" xmlns:xlink="http://www.w3.org/1999/xlink" 
	 viewBox="0 0 512 512" xml:space="preserve">
<g>
	<g>
		<polygon points="22.092,396.979 37.295,464.058 440.857,464.058 463.66,396.979 		"/>
	</g>
</g>
<g>
	<g>
		<path d="M456.224,254.777c-2.211-10.618-6.696-20.409-12.912-28.85h67.733v-30.404h-127.71h-53.132H315v59.254h-42.786
			l-20.269,44.719h-17.133v-49.26H45.965v49.26H0l15.202,67.079h458.793L512,254.777H456.224z"/>
	</g>
</g>
<g>
	<g>
		<polygon points="155.591,170.571 155.591,150.302 204.496,150.302 204.496,73.279 155.591,73.279 155.591,47.942 125.187,47.942 
			125.187,73.279 76.282,73.279 76.282,150.302 125.187,150.302 125.187,170.571 45.965,170.571 45.965,219.832 234.812,219.832 
			234.812,170.571 		"/>
	</g>
</g>
</svg>